<?xml version="1.0" standalone="no"?>
<!DOCTYPE svg PUBLIC "-//W3C//DTD SVG 20010904//EN"
 "http://www.w3.org/TR/2001/REC-SVG-20010904/DTD/svg10.dtd">
<svg version="1.0" xmlns="http://www.w3.org/2000/svg"
 width="500.000000pt" height="259.000000pt" viewBox="0 0 500.000000 259.000000"
 preserveAspectRatio="xMidYMid meet">

<g transform="translate(0.000000,259.000000) scale(0.100000,-0.100000)"
fill="#000000" stroke="none">
<path d="M3293 2230 c-22 -5 -65 -19 -93 -31 -50 -22 -52 -24 -47 -56 l6 -33
-97 -1 c-53 0 -106 -4 -117 -9 -17 -7 -16 -9 10 -9 43 -2 178 -37 233 -61 80
-36 115 -80 131 -166 9 -45 8 -45 -15 -40 -29 8 -29 10 -3 -50 18 -40 20 -59
15 -115 -3 -37 -9 -76 -12 -86 -5 -12 -4 -15 4 -8 16 15 52 131 59 187 3 26 7
48 9 48 1 0 16 -13 32 -30 39 -38 54 -38 88 3 16 19 34 31 45 29 15 -3 20 5
25 38 5 30 13 45 30 52 13 6 24 14 24 18 0 3 -22 16 -50 27 l-50 21 -12 -26
c-23 -47 -93 -38 -117 15 -18 39 -14 43 37 37 46 -6 46 -5 -63 56 -108 61
-150 90 -128 90 21 0 143 -41 226 -75 l82 -35 -38 34 c-21 19 -70 50 -110 70
-63 31 -68 36 -41 36 34 0 120 -27 175 -55 l34 -18 -20 23 c-11 12 -42 36 -70
52 l-50 30 37 -5 c69 -10 128 -49 183 -122 14 -19 14 -18 4 10 -35 99 -120
156 -242 161 -40 2 -91 -1 -114 -6z"/>
<path d="M2585 2029 c-120 -40 -200 -84 -256 -140 -80 -79 -78 -142 10 -229
36 -36 84 -70 134 -95 42 -21 77 -40 77 -42 0 -1 -45 -3 -100 -3 -98 0 -101 1
-110 25 -5 13 -27 35 -49 49 -22 14 -42 30 -46 36 -3 5 -37 10 -76 10 -61 0
-69 -2 -69 -19 0 -44 10 -51 70 -51 44 0 59 -4 64 -16 14 -36 9 -37 -155 -30
-88 3 -488 3 -888 -1 l-728 -6 -6 -156 c-4 -86 -10 -255 -13 -377 l-7 -221
204 28 c312 43 1112 128 1205 129 7 0 1 -20 -12 -47 -26 -51 -32 -131 -13
-180 25 -66 95 -113 169 -113 22 0 40 -4 40 -9 0 -19 -102 -34 -185 -27 -79 7
-84 6 -113 -19 -38 -31 -50 -81 -30 -122 38 -80 268 -83 411 -6 44 24 50 25
58 11 14 -25 71 -41 103 -29 22 9 58 53 69 85 2 5 15 -3 29 -17 15 -14 38 -29
53 -33 35 -9 97 10 132 40 22 19 33 22 47 14 10 -5 36 -8 58 -6 38 4 39 3 34
-22 -20 -85 -20 -88 12 -120 34 -33 67 -38 111 -16 21 11 36 35 62 100 21 54
40 86 49 86 86 1 189 90 253 218 34 69 41 94 42 143 0 32 5 59 10 59 70 0 732
-74 1038 -116 98 -13 186 -24 195 -24 18 0 18 -12 -3 552 l-7 198 -622 2 -621
3 -5 135 c-7 175 -22 206 -123 250 -47 21 -215 41 -172 21 11 -5 31 -10 45
-11 38 -1 111 -37 148 -73 42 -41 41 -51 -4 -25 -47 28 -134 48 -210 48 -72 0
-213 -25 -264 -47 l-35 -15 38 -14 c51 -18 206 -100 237 -125 18 -15 21 -22
12 -26 -7 -3 -25 -15 -38 -27 l-25 -21 85 0 c47 0 86 2 86 5 0 3 -28 36 -61
73 -34 37 -60 69 -58 71 6 4 233 -21 258 -29 14 -4 20 -12 17 -22 -3 -8 -6
-50 -6 -94 l0 -79 -176 0 -176 0 -119 61 c-124 63 -231 135 -248 167 -23 43
57 133 171 190 39 20 52 30 33 26 -65 -14 -138 -48 -193 -89 -31 -24 -59 -41
-62 -38 -3 3 21 29 52 59 51 47 149 102 268 152 58 24 -18 11 -105 -19z m-829
-590 c32 -6 62 -13 65 -15 4 -2 0 -31 -9 -65 -13 -53 -17 -60 -36 -55 -12 3
-45 8 -73 12 -43 5 -53 4 -53 -8 0 -9 22 -21 60 -31 117 -33 158 -110 108
-206 -30 -58 -80 -84 -168 -89 -69 -4 -150 12 -150 29 0 15 31 119 35 119 2 0
34 -7 71 -16 47 -10 70 -12 77 -5 15 15 1 26 -60 45 -69 23 -100 49 -113 96
-16 61 9 135 55 166 49 32 105 39 191 23z m-985 -142 c15 -76 29 -140 31 -143
3 -2 16 60 29 138 l25 143 90 3 91 3 6 -118 c21 -394 21 -380 1 -386 -10 -3
-41 -7 -69 -9 l-50 -3 -5 120 -5 120 -18 -100 c-29 -156 -24 -149 -93 -158
-32 -4 -64 -5 -70 -3 -6 2 -19 53 -29 113 -10 59 -22 112 -27 118 -4 5 -8 -45
-8 -112 0 -67 -4 -124 -8 -127 -5 -3 -34 -9 -65 -14 l-57 -9 0 36 c0 61 21
464 26 499 l5 33 87 -3 87 -3 26 -138z m628 106 c27 -111 94 -423 90 -427 -2
-2 -35 -5 -74 -7 l-69 -4 -9 43 c-8 41 -9 42 -47 42 -43 0 -51 -8 -60 -60 l-5
-35 -69 -8 c-37 -5 -70 -6 -73 -3 -4 4 82 401 103 479 5 15 19 17 104 17 l99
0 10 -37z m791 -23 l0 -60 -45 0 -45 0 0 -110 c0 -69 -4 -110 -10 -110 -6 0
-39 -18 -73 -40 l-62 -39 -3 149 -3 150 -44 0 -45 0 0 60 0 60 165 0 165 0 0
-60z m350 0 l0 -60 -75 0 c-65 0 -75 -2 -75 -18 0 -15 9 -18 68 -17 l67 0 0
-60 0 -60 -67 -3 c-52 -2 -68 -6 -68 -17 0 -12 17 -15 80 -15 78 0 80 -1 80
-24 0 -23 -3 -24 -35 -19 -32 5 -40 1 -76 -37 -23 -24 -44 -39 -47 -33 -27 38
-42 53 -76 77 -21 14 -47 26 -57 26 -18 0 -19 11 -19 160 l0 160 150 0 150 0
0 -60z m361 37 c47 -31 61 -62 56 -125 -3 -37 -10 -59 -26 -76 -35 -37 -7 -96
45 -96 23 0 24 -3 24 -60 l0 -60 -64 0 c-78 0 -112 23 -145 100 -30 69 -43 64
-40 -17 1 -38 -1 -69 -4 -70 -4 -2 -36 -3 -72 -3 l-65 0 0 215 0 215 129 0
c117 0 131 -2 162 -23z m403 -1 c44 -18 66 -52 66 -99 0 -48 -13 -73 -48 -91
l-27 -14 26 -11 c55 -21 77 -98 44 -160 -23 -46 -60 -55 -198 -47 -67 4 -123
8 -123 9 -1 1 -4 98 -6 215 l-3 212 118 0 c78 0 129 -5 151 -14z m276 -218 l0
-233 -67 5 -68 5 -3 228 -2 227 70 0 70 0 0 -232z m220 142 c0 -49 3 -90 8
-90 4 0 26 41 49 90 l41 90 71 0 c39 0 71 -3 71 -6 0 -4 -23 -45 -51 -92 l-51
-85 37 -93 c22 -57 42 -94 51 -94 11 0 14 -16 14 -70 l0 -70 -39 0 c-28 0 -49
8 -70 26 -17 14 -31 29 -31 34 0 4 -11 34 -26 65 l-25 58 -25 -36 c-16 -25
-24 -50 -24 -80 l0 -43 -62 4 c-35 2 -65 6 -66 7 -2 2 -6 109 -9 239 l-6 236
71 0 72 0 0 -90z m598 13 l3 -73 -81 0 c-79 0 -81 -1 -78 -22 3 -21 10 -24 71
-28 37 -3 67 -8 67 -12 0 -5 0 -38 0 -74 l0 -67 -70 7 c-70 6 -70 6 -70 -19 0
-30 4 -32 93 -40 l67 -7 0 -74 0 -75 -32 6 c-42 7 -249 35 -260 35 -4 0 -8
117 -8 260 l0 261 148 -3 147 -3 3 -72z m-2118 -302 c39 -21 80 -89 80 -133 0
-64 -48 -128 -86 -114 -16 6 -19 42 -4 51 6 3 10 26 10 50 0 85 -77 109 -185
56 -98 -48 -165 -124 -165 -187 0 -54 42 -65 164 -43 80 15 129 -4 146 -57 11
-31 9 -41 -14 -89 -32 -65 -80 -109 -161 -146 -99 -46 -215 -55 -297 -24 -22
9 -23 43 -3 66 13 14 23 15 58 7 115 -27 299 35 354 118 14 22 14 27 2 40 -13
12 -25 12 -90 -2 -86 -19 -134 -14 -174 18 -85 66 -63 182 54 290 113 105 230
143 311 99z m258 -43 c2 -9 -20 -56 -47 -105 -28 -49 -51 -92 -51 -95 0 -3 18
4 41 15 86 42 116 -19 60 -124 -15 -30 -40 -76 -54 -103 -27 -50 -27 -77 0
-54 24 20 89 119 121 186 42 86 67 118 116 147 52 31 89 32 117 4 18 -18 21
-30 17 -85 -2 -35 -2 -64 -1 -64 20 0 55 43 83 100 28 58 38 70 58 70 13 0 35
9 49 20 35 27 87 26 107 -2 50 -71 -32 -265 -143 -339 -36 -23 -55 -29 -86
-27 l-40 3 -44 -102 c-38 -89 -48 -103 -68 -103 -50 0 -43 37 38 209 27 57 49
105 49 107 0 2 -8 4 -18 4 -11 0 -24 -11 -30 -24 -19 -42 -76 -99 -119 -118
-46 -20 -83 -13 -102 19 -10 16 -13 15 -37 -15 -48 -61 -123 -82 -145 -41 -20
37 -4 102 45 189 25 46 44 86 40 89 -3 3 -34 -24 -69 -61 -46 -48 -75 -92
-105 -155 -57 -122 -55 -118 -81 -118 -39 0 -34 31 30 176 74 170 99 221 164
332 45 77 55 87 77 85 14 -2 26 -10 28 -20z"/>
<path d="M1281 1270 c-1 -14 -4 -42 -7 -62 -6 -34 -4 -38 14 -38 18 0 19 5 15
43 -3 23 -9 51 -14 62 -7 18 -8 18 -8 -5z"/>
<path d="M2756 1322 c-7 -11 -1 -68 8 -64 3 1 15 2 27 2 17 0 20 5 17 33 -2
24 -8 33 -25 35 -11 2 -24 -1 -27 -6z"/>
<path d="M3177 1323 c-11 -10 -8 -61 3 -68 22 -14 50 6 50 35 0 32 -34 53 -53
33z"/>
<path d="M3170 1129 c0 -39 1 -40 33 -37 25 2 33 8 35 26 5 30 -14 52 -44 52
-21 0 -24 -5 -24 -41z"/>
<path d="M3048 841 c-49 -57 -133 -220 -120 -233 17 -17 96 65 135 140 59 113
50 169 -15 93z"/>
<path d="M2761 826 c-8 -9 -8 -21 0 -45 14 -39 25 -40 32 -1 10 50 -8 76 -32
46z"/>
<path d="M2675 709 c-24 -51 -34 -139 -17 -139 10 0 64 58 84 90 14 23 13 27
-13 64 l-29 39 -25 -54z"/>
</g>
</svg>
